# xmcd CD database file
# Copyright (C) 1995-1998 Ti Kan
#
# Track frame offsets:
#	150
#	21161
#	44205
#	67069
#	81249
#	97453
#	108936
#	122660
#	143523
#	163622
#
# Disc length: 2550 seconds
#
# Revision: 1
# Processed by: cddbd v1.4PL0 Copyright (c) Steve Scherf et al.
# Submitted via: CDex 1.30Release
#
DISCID=8f09f40a
DTITLE=Buddy Guy and Junior Wells - The Real Blues
DYEAR=1900
DGENRE=Blues
TTITLE0=Buddy's blues
TTITLE1=Blue Monday
TTITLE2=Everyday I have the blues
TTITLE3=Woman blues
TTITLE4=Satisfaction
TTITLE5=Messin' with the kid
TTITLE6=No use cryin'
TTITLE7=Just to be with you
TTITLE8=Junior's shuffle
TTITLE9=Out of sight
EXTD=ID3G:   0
EXTT0=
EXTT1=
EXTT2=
EXTT3=
EXTT4=
EXTT5=
EXTT6=
EXTT7=
EXTT8=
EXTT9=
PLAYORDER=
